<svg width="42" height="42" viewBox="0 0 42 42" fill="none" xmlns="http://www.w3.org/2000/svg">
<g filter="url(#filter0_d)">
<path d="M6 3H21C29.2843 3 36 9.71573 36 18C36 26.2843 29.2843 33 21 33H6V3Z" fill="white"/>
</g>
<path d="M6 18L21 3C24.7603 3 28.1974 4.38364 30.83 6.66956C30.8296 6.67319 27.053 10.45 19.5 18C27.0533 25.55 30.8298 29.327 30.8294 29.3309C28.1969 31.6165 24.76 33 21 33L6 18Z" fill="url(#paint0_linear)"/>
<path d="M30.8303 6.6698C33.9974 9.42 36 13.4761 36 18C36 22.5241 33.9971 26.5804 30.8297 29.3306C30.8301 29.3268 27.0535 25.55 19.5 18L30.8303 6.6698Z" fill="url(#paint1_linear)"/>
<defs>
<filter id="filter0_d" x="4.76837e-07" y="2.38419e-07" width="42" height="42" filterUnits="userSpaceOnUse" color-interpolation-filters="sRGB">
<feFlood flood-opacity="0" result="BackgroundImageFix"/>
<feColorMatrix in="SourceAlpha" type="matrix" values="0 0 0 0 0 0 0 0 0 0 0 0 0 0 0 0 0 0 127 0"/>
<feOffset dy="3"/>
<feGaussianBlur stdDeviation="3"/>
<feColorMatrix type="matrix" values="0 0 0 0 0 0 0 0 0 0 0 0 0 0 0 0 0 0 0.25 0"/>
<feBlend mode="normal" in2="BackgroundImageFix" result="effect1_dropShadow"/>
<feBlend mode="normal" in="SourceGraphic" in2="effect1_dropShadow" result="shape"/>
</filter>
<linearGradient id="paint0_linear" x1="6" y1="18" x2="36.0674" y2="18" gradientUnits="userSpaceOnUse">
<stop stop-color="#4899F7"/>
<stop offset="1" stop-color="#2457F5"/>
</linearGradient>
<linearGradient id="paint1_linear" x1="19.5" y1="6.6698" x2="40.4066" y2="17.5551" gradientUnits="userSpaceOnUse">
<stop stop-color="#9DE1E5"/>
<stop offset="1" stop-color="#B8DFB2"/>
</linearGradient>
</defs>
</svg>
