<svg width="24" height="24" viewBox="0 0 24 24" fill="none" xmlns="http://www.w3.org/2000/svg">
<mask id="mask0" mask-type="alpha" maskUnits="userSpaceOnUse" x="4" y="6" width="17" height="12">
<path d="M12.0011 18C12.3271 18 12.6331 17.841 12.8201 17.573L19.8201 7.573C20.0341 7.268 20.0581 6.869 19.8881 6.538C19.7151 6.207 19.3741 6 19.0011 6H4.99907C4.62607 6 4.28507 6.207 4.11207 6.538C3.94207 6.869 3.96607 7.268 4.18007 7.573L11.1801 17.573C11.3671 17.841 11.6731 18 11.9991 18C12.0001 18 12.0001 18 12.0011 18C12.0001 18 12.0001 18 12.0011 18Z" fill="black"/>
</mask>
<g mask="url(#mask0)">
<rect width="24" height="24" fill="black"/>
</g>
</svg>
